<?xml version="1.0" encoding="UTF-8"?>
<svg width="38px" height="33px" viewBox="0 0 38 33" version="1.1" xmlns="http://www.w3.org/2000/svg" xmlns:xlink="http://www.w3.org/1999/xlink">
    <!-- Generator: sketchtool 63.1 (101010) - https://sketch.com -->
    <title>2154110D-AC62-4224-BDD6-ED4DE0ACB833</title>
    <desc>Created with sketchtool.</desc>
    <g id="[UI]-BACKOFFICE-/-AVISOS" stroke="none" stroke-width="1" fill="none" fill-rule="evenodd">
        <g id="04_[Backoffice]Avisos-Detalle" transform="translate(-258.000000, -737.000000)">
            <g id="Alert" transform="translate(235.000000, 713.000000)">
                <g id="Group-4" transform="translate(24.000000, 24.000000)">
                    <path d="M17.3377689,0.760776826 L0.412162895,31.2573642 C0.278158817,31.4988129 0.365259965,31.8031776 0.606708755,31.9371817 C0.680942388,31.9783814 0.764444399,32 0.849344603,32 L35.9095284,32 C36.1856708,32 36.4095284,31.7761424 36.4095284,31.5 C36.4095284,31.4100482 36.3852622,31.3217622 36.3392872,31.244447 L18.2047094,0.747859654 C18.0635714,0.510510405 17.7567468,0.432515806 17.5193975,0.573653842 C17.4433684,0.618864011 17.3806938,0.683434523 17.3377689,0.760776826 Z" id="Path" stroke="#EFA51E" fill="#FCF1D1"></path>
                    <path d="M18.9785223,22.3035 L19.2282723,11.52 L16.5642723,11.52 L16.8036161,22.3035 L18.9785223,22.3035 Z M17.9274911,26.955 C18.3853661,26.955 18.7391786,26.8255 18.9889286,26.5665 C19.2386786,26.3075 19.3635536,25.9855 19.3635536,25.6005 C19.3635536,25.2015 19.2352098,24.87075 18.9785223,24.60825 C18.7218348,24.34575 18.3714911,24.2145 17.9274911,24.2145 C17.4834911,24.2145 17.1331473,24.34575 16.8764598,24.60825 C16.6197723,24.87075 16.4914286,25.2015 16.4914286,25.6005 C16.4914286,25.9855 16.6163036,26.3075 16.8660536,26.5665 C17.1158036,26.8255 17.4696161,26.955 17.9274911,26.955 Z" id="!" fill="#EFA51E" fill-rule="nonzero" transform="translate(17.927491, 19.237500) rotate(-180.000000) translate(-17.927491, -19.237500) "></path>
                </g>
            </g>
        </g>
    </g>
</svg>